<?xml version="1.0" encoding="UTF-8"?>
<svg version="1.1" xmlns="http://www.w3.org/2000/svg" width="4167" height="4167">
<path d="M0 0 C0.52029785 0.42555176 1.0405957 0.85110352 1.57666016 1.28955078 C26.11313088 21.44634599 47.65551542 44.32923121 65 71 C65.71800781 72.09828125 66.43601562 73.1965625 67.17578125 74.328125 C93.4369516 115.7340868 108.39815806 171.55080703 98.15234375 220.23828125 C91.85364835 247.843027 77.1579732 272.11506383 53.25 287.6875 C17.09433827 310.25241781 -24.05383298 316.02303063 -65.47265625 306.81640625 C-96.66380644 299.43674519 -125.22416254 285.28331705 -153.80909729 271.21148682 C-198.82026958 249.05699323 -245.15796437 226.48717335 -296.4375 226.625 C-297.53927078 226.62531723 -297.53927078 226.62531723 -298.66329956 226.62564087 C-321.57014485 226.69095545 -343.78648881 230.69822402 -364.77734375 240.08203125 C-367 241 -367 241 -369 241 C-363.44818508 266.8334329 -356.74901608 292.19538576 -345 316 C-344.55785156 316.90202148 -344.11570312 317.80404297 -343.66015625 318.73339844 C-337.34098371 331.51302584 -330.54990609 343.58357968 -322 355 C-321.56365234 355.59039063 -321.12730469 356.18078125 -320.67773438 356.7890625 C-301.19621171 382.99531817 -276.83279297 403.71115882 -248 419 C-247.25878906 419.39525879 -246.51757812 419.79051758 -245.75390625 420.19775391 C-189.00447413 449.95629838 -120.08348599 451.93088865 -59.48046875 433.80859375 C-7.89992886 417.65634197 40.85524205 387.1637676 73 343 C73.85649066 341.85005169 74.71326433 340.70031411 75.5703125 339.55078125 C93.56769588 315.15805817 105.4334302 287.95235842 114 259 C114.33 259 114.66 259 115 259 C116.71034704 329.6651078 80.6120677 403.73656886 32.83349609 454.09179688 C11.19583853 476.61109535 11.19583853 476.61109535 0 485 C-1.20645269 485.93396196 -2.41212109 486.86893754 -3.6171875 487.8046875 C-44.89236593 519.59178924 -92.74386702 540.03501698 -144 549 C-144.92570801 549.16516113 -145.85141602 549.33032227 -146.80517578 549.50048828 C-177.90407879 554.75886198 -212.9651383 554.55245155 -244 549 C-245.13775879 548.80132324 -246.27551758 548.60264648 -247.44775391 548.39794922 C-278.93114384 542.75098891 -308.87933167 532.86358417 -337.19824219 517.94140625 C-338.97754725 517.01173141 -340.77392755 516.11497706 -342.5703125 515.21875 C-358.78447108 507.03364406 -373.93053107 496.45232497 -388 485 C-388.51401367 484.58218262 -389.02802734 484.16436523 -389.55761719 483.73388672 C-442.27473847 440.64435511 -471.19272129 387.61707717 -478.26123047 319.48193359 C-478.66747204 314.98989547 -478.88239623 310.50984885 -479 306 C-479.03996094 304.94554687 -479.07992188 303.89109375 -479.12109375 302.8046875 C-480.07749054 256.11002091 -466.75032778 209.83167846 -435 175 C-434.13761719 174.05382813 -433.27523438 173.10765625 -432.38671875 172.1328125 C-398.91103478 137.11972675 -345.81071223 122.19119419 -298.66015625 120.71484375 C-250.966407 119.85250036 -207.19328779 133.60226335 -162.58276367 148.88378906 C-129.6681014 160.09211368 -92.71875048 171.7813172 -59 157 C-47.18394613 150.83916297 -39.34127622 141.75822054 -34.69140625 129.2890625 C-30.15007321 114.2539147 -33.6096725 98.77560337 -40.75 85.1875 C-44.20992007 78.9191563 -48.17187152 73.30487366 -53 68 C-53.81082031 67.10796875 -54.62164063 66.2159375 -55.45703125 65.296875 C-92.98549701 25.95517444 -153.23663847 15.91071568 -205 14 C-289.91568021 12.16208001 -367.08873424 45.52349002 -428.2109375 103.08203125 C-432.73039675 107.46751444 -436.71757531 112.18035132 -440.65234375 117.09375 C-443.02486667 120.03078337 -445.47765378 122.8859537 -447.9375 125.75 C-453.53611111 132.47352525 -458.34634382 139.59845321 -463 147 C-463.40186523 147.63470215 -463.80373047 148.2694043 -464.21777344 148.92333984 C-487.55636572 186.13156291 -498.27442072 225.6478047 -502 269 C-502.33 269 -502.66 269 -503 269 C-504.1974537 264.26957794 -504.17818128 259.6473198 -504.203125 254.80078125 C-504.21013931 253.90150406 -504.21715363 253.00222687 -504.22438049 252.07569885 C-504.24194364 249.15458202 -504.24824202 246.23366785 -504.25 243.3125 C-504.25067474 242.31647766 -504.25134949 241.32045532 -504.25204468 240.29425049 C-504.23518449 224.6489389 -503.59469399 209.45834915 -501 194 C-500.83371094 192.9589209 -500.66742187 191.9178418 -500.49609375 190.84521484 C-488.72602307 118.53556768 -449.29504252 47.30404574 -391 2 C-389.99324219 1.17628906 -388.98648437 0.35257813 -387.94921875 -0.49609375 C-372.51217094 -13.07006063 -355.69675979 -23.89821417 -338 -33 C-336.63246582 -33.70721191 -336.63246582 -33.70721191 -335.23730469 -34.42871094 C-237.90093877 -84.2475569 -115.87832506 -78.73841497 0 0 Z " fill="#0280B1" transform="translate(2272,1546)"/>
<path d="M0 0 C0.66 0 1.32 0 2 0 C3.33344531 1.76204586 4.57097324 3.59669275 5.76953125 5.453125 C6.1536618 6.04331924 6.53779236 6.63351349 6.93356323 7.24159241 C7.78115028 8.54560067 8.62550781 9.85171208 9.46713257 11.15957642 C10.83430059 13.28387362 12.20952151 15.40274243 13.5871582 17.52026367 C15.08745549 19.82640306 16.58724516 22.13285626 18.08470154 24.44084167 C23.9479026 33.47545476 29.87510151 42.46773035 35.80514526 51.45855713 C37.69636322 54.32593802 39.58662771 57.19394582 41.47680664 60.06201172 C48.04045124 70.01815185 54.62283892 79.96102147 61.25 89.875 C68.05616811 100.05941809 74.8200097 110.27128887 81.5604248 120.49932861 C82.67145201 122.18481331 83.7831674 123.86984461 84.89562988 125.55438232 C96.12963071 142.56939605 96.12963071 142.56939605 101 151 C94.50668857 155.18319102 87.81485353 158.8688687 81 162.5 C79.26258783 163.43063365 77.52517899 164.3612736 75.7880249 165.29238892 C74.60383485 165.92697597 73.41946713 166.56123158 72.23492432 167.19515991 C66.3965358 170.31987317 60.57170708 173.46934406 54.75 176.625 C53.76386719 177.15931641 52.77773437 177.69363281 51.76171875 178.24414062 C44.2616879 182.31036288 36.77158099 186.39462929 29.28369141 190.4831543 C17.5252528 196.90096016 5.7406139 203.27041284 -6.04101562 209.64550781 C-17.05478899 215.60569449 -28.06540902 221.57157508 -39.0625 227.5625 C-39.96049316 228.05113525 -40.85848633 228.53977051 -41.78369141 229.04321289 C-42.6297998 229.5046167 -43.4759082 229.96602051 -44.34765625 230.44140625 C-45.54092529 231.08940186 -45.54092529 231.08940186 -46.75830078 231.75048828 C-48.85184724 232.91742041 -50.88871513 234.15296301 -52.93359375 235.40234375 C-53.94550781 235.92957031 -54.95742187 236.45679688 -56 237 C-56.99 236.67 -57.98 236.34 -59 236 C-58.88724731 235.42228348 -58.77449463 234.84456696 -58.6583252 234.24934387 C-57.48487378 228.23200532 -56.31794612 222.21342778 -55.15478516 216.1940918 C-54.71993232 213.94832496 -54.28342152 211.7028785 -53.84521484 209.45776367 C-53.21535243 206.22918321 -52.59147675 202.99949462 -51.96875 199.76953125 C-51.67345398 198.26613945 -51.67345398 198.26613945 -51.37219238 196.7323761 C-51.19200562 195.79177841 -51.01181885 194.85118073 -50.82617188 193.88208008 C-50.66628784 193.05823318 -50.50640381 192.23438629 -50.3416748 191.38557434 C-49.98456014 188.89219886 -49.94082476 186.51535002 -50 184 C-74.85685523 179.10790884 -99.36237942 175.23612813 -124.6875 173.8125 C-125.83635681 173.74790588 -125.83635681 173.74790588 -127.00842285 173.68200684 C-142.03287864 172.85867151 -156.91607713 172.92999732 -171.9375 173.75 C-172.71768494 173.79256927 -173.49786987 173.83513855 -174.30169678 173.8789978 C-189.99699526 174.76273222 -205.47412197 176.48787862 -221 179 C-222.61696777 179.26055176 -222.61696777 179.26055176 -224.26660156 179.52636719 C-305.58143839 193.04136772 -384.53353811 230.40267751 -445.19921875 286.4453125 C-447.33003494 288.38890216 -449.48397369 290.27530087 -451.671875 292.15234375 C-456.86428293 296.68247659 -461.702334 301.55651959 -466.5625 306.4375 C-467.46935547 307.34048828 -468.37621094 308.24347656 -469.31054688 309.17382812 C-474.41667684 314.28736365 -479.31805789 319.496718 -484 325 C-485.2684375 326.44632813 -485.2684375 326.44632813 -486.5625 327.921875 C-507.24284991 351.91638355 -524.47400705 378.44861149 -540 406 C-540.38559082 406.67192383 -540.77118164 407.34384766 -541.16845703 408.03613281 C-551.45063644 425.96982424 -559.69352794 445.68288893 -567 465 C-567.33 465 -567.66 465 -568 465 C-567.46994719 454.87419449 -566.46123831 444.96061406 -564.875 434.9375 C-564.76806824 434.25768066 -564.66113647 433.57786133 -564.55096436 432.87744141 C-557.18259998 386.46601842 -542.99332437 339.80126595 -521.10595703 298.12646484 C-519.84745103 295.70668841 -518.62512094 293.27005129 -517.40234375 290.83203125 C-506.40452185 269.08977606 -493.72443005 248.41802779 -479 229 C-478.54399414 228.39381836 -478.08798828 227.78763672 -477.61816406 227.16308594 C-469.93133458 216.95728074 -461.95891855 207.01444922 -453.3359375 197.58203125 C-452.08740486 196.20196424 -450.84430603 194.81621677 -449.64135742 193.39624023 C-444.21387379 187.02309056 -438.30121542 181.14997147 -432.37573242 175.24536133 C-430.56639067 173.44137915 -428.76245681 171.63211335 -426.95898438 169.82226562 C-421.14425428 164.00352969 -415.31832514 158.27749737 -409 153 C-408.06208618 152.20203003 -408.06208618 152.20203003 -407.10522461 151.38793945 C-332.27458202 87.9681447 -239.61722952 49.76674311 -142 41 C-140.98873047 40.90428711 -139.97746094 40.80857422 -138.93554688 40.70996094 C-127.39132628 39.73924438 -115.82786344 39.7573535 -104.25 39.75 C-103.1472876 39.74899292 -102.0445752 39.74798584 -100.90844727 39.74694824 C-39.64615792 39.78461403 -39.64615792 39.78461403 -15 48 C-14.85522217 47.3512793 -14.71044434 46.70255859 -14.5612793 46.03417969 C-12.25130831 36.2324787 -9.0384496 26.77773877 -5.8125 17.25 C-5.24762395 15.57045468 -4.68316776 13.89076809 -4.11914062 12.2109375 C-2.75092243 8.13898227 -1.37705858 4.06897364 0 0 Z " fill="#3FA742" transform="translate(2141,1212)"/>
<path d="M0 0 C5.49716143 1.47801039 9.61356624 4.13943116 14.25 7.3125 C15.03358887 7.84302979 15.81717773 8.37355957 16.62451172 8.92016602 C30.93033517 18.66349137 44.73001669 28.88517821 58 40 C58.59232422 40.49322754 59.18464844 40.98645508 59.79492188 41.49462891 C75.80382966 54.85769435 91.77785326 69.12040336 105.30859375 85.03125 C107.23867842 87.27781507 109.24418139 89.44583904 111.25 91.625 C116.29449303 97.22336473 120.91667072 103.10669645 125.51123047 109.07421875 C127.02900591 111.03752028 128.56225273 112.98796363 130.09765625 114.9375 C149.80842209 140.12431666 165.67592214 167.46819105 180 196 C180.43973145 196.87011719 180.87946289 197.74023438 181.33251953 198.63671875 C204.18126282 244.13011586 217.45908628 294.76691448 223.25 345.1875 C223.33326538 345.91135895 223.41653076 346.6352179 223.50231934 347.38101196 C225.40557491 364.16941981 226.20872636 380.86070029 226.1875 397.75 C226.18689575 398.64562653 226.1862915 399.54125305 226.18566895 400.46401978 C226.10209248 446.38776024 219.65701681 492.10673492 206 536 C205.63535645 537.17481934 205.27071289 538.34963867 204.89501953 539.56005859 C199.26810157 557.47667161 192.77250901 574.89068723 185 592 C184.24396484 593.66458252 184.24396484 593.66458252 183.47265625 595.36279297 C175.91995422 611.82664748 167.41805135 627.53432405 158 643 C157.53996582 643.76376953 157.07993164 644.52753906 156.60595703 645.31445312 C151.39208393 653.96146721 145.82059162 662.27751683 139.84521484 670.41967773 C139.35875488 671.09071533 138.87229492 671.76175293 138.37109375 672.453125 C137.93724365 673.04254883 137.50339355 673.63197266 137.05639648 674.23925781 C135.88167607 676.19721567 135.28144369 677.73204735 135 680 C136.82001706 682.47049992 136.82001706 682.47049992 139.4375 684.8125 C140.36820313 685.699375 141.29890625 686.58625 142.2578125 687.5 C145.03737148 690.03407086 147.86103245 692.50112583 150.72265625 694.94140625 C154.43942376 698.30116007 157.9296666 701.88952578 161.43286133 705.4699707 C163.67951794 707.75197027 165.80888188 709.8588474 168.390625 711.765625 C168.92171875 712.17296875 169.4528125 712.5803125 170 713 C170 713.66 170 714.32 170 715 C147.26970424 718.00275518 124.53892437 721.00182049 101.80756092 723.99648285 C91.25322942 725.38701329 80.69906027 726.7787549 70.14526367 728.17333984 C60.94756357 729.38872627 51.74956815 730.60184839 42.55120963 731.81224203 C37.67989715 732.45332903 32.80874105 733.09555593 27.93793678 733.74049377 C23.35425285 734.34737795 18.77018044 734.95123584 14.18579102 735.5527668 C12.50261914 735.7741646 10.81959269 735.99667127 9.13672447 736.22036552 C6.83984735 736.52550825 4.54248123 736.82666417 2.24494934 737.12683105 C0.31609752 737.38124592 0.31609752 737.38124592 -1.651721 737.64080048 C-4.47435981 737.94360992 -7.16621667 738.07554168 -10 738 C-10.86931607 734.16762677 -11.20973488 730.4897222 -11.38600159 726.56625366 C-11.4764122 724.61559746 -11.4764122 724.61559746 -11.56864929 722.62553406 C-11.63121244 721.1909519 -11.69369445 719.75636621 -11.75610352 718.32177734 C-11.82489546 716.80507476 -11.89401602 715.28838705 -11.96343994 713.77171326 C-12.15090765 709.6532543 -12.33345556 705.53459086 -12.51489758 701.41586256 C-12.66738443 697.96520706 -12.82234346 694.51466442 -12.97731918 691.06411994 C-13.34372375 682.90585391 -13.70622732 674.74742104 -14.06616211 666.58886719 C-14.43562828 658.21548019 -14.81089866 649.84236844 -15.18923432 641.46937788 C-15.51509654 634.25389123 -15.83760144 627.03825987 -16.15743965 619.82250369 C-16.34791441 615.5255217 -16.53950501 611.22859796 -16.7341938 606.93180466 C-18.28477917 572.64641349 -18.28477917 572.64641349 -18 557 C-11.33694756 561.33173587 -4.98145255 565.96166952 1.3125 570.8125 C3.15599042 572.22559913 4.99973917 573.63836131 6.84375 575.05078125 C8.16632812 576.06519287 8.16632812 576.06519287 9.515625 577.10009766 C14.31565789 580.77087753 19.15502155 584.38883594 24 588 C27.22172799 586.62576009 28.9016967 585.20398579 30.9609375 582.38671875 C31.78078125 581.273573 31.78078125 581.273573 32.6171875 580.13793945 C33.48730469 578.92497192 33.48730469 578.92497192 34.375 577.6875 C34.98859375 576.84082764 35.6021875 575.99415527 36.234375 575.12182617 C48.54234738 558.01154671 59.62728115 540.34431347 70 522 C70.38849121 521.32372559 70.77698242 520.64745117 71.17724609 519.95068359 C88.88754249 489.05708964 101.09930507 454.32411648 110 420 C110.27682617 418.93394531 110.55365234 417.86789062 110.83886719 416.76953125 C117.15029079 392.01108787 121.2582506 366.49524789 123 341 C123.05639648 340.19804199 123.11279297 339.39608398 123.17089844 338.56982422 C128.16229824 264.51103717 113.84669915 190.37931035 83 123 C82.42983154 121.74219727 82.42983154 121.74219727 81.84814453 120.45898438 C67.25010582 88.36229883 48.19494065 58.37260954 26 31 C25.24332031 30.04996094 24.48664062 29.09992188 23.70703125 28.12109375 C19.30375533 22.64232743 14.68698988 17.43472838 9.89916992 12.29541016 C6.28449047 8.38719525 3.08403301 4.33431666 0 0 Z " fill="#33A342" transform="translate(2387,1385)"/>
<path d="M0 0 C3.95682435 0.6011441 6.91421477 1.83084578 10.41796875 3.74609375 C11.48982422 4.32681641 12.56167969 4.90753906 13.66601562 5.50585938 C14.23747314 5.81934326 14.80893066 6.13282715 15.39770508 6.45581055 C17.86854854 7.81105015 20.34720765 9.15170539 22.82546997 10.49331665 C24.15160089 11.21133331 25.47733755 11.93007855 26.80270386 12.64950562 C33.78888058 16.43867326 40.81443723 20.15229465 47.8432312 23.8616333 C60.09312123 30.32726229 72.31904034 36.8356228 84.5234375 43.38671875 C93.33633257 48.11509852 102.16552043 52.81210884 111 57.5 C120.95491016 62.78383773 130.90656665 68.07365523 140.84448242 73.3894043 C142.05876555 74.0387699 143.2732783 74.68770633 144.48803711 75.33618164 C146.16327846 76.2306597 147.83752052 77.12700855 149.51171875 78.0234375 C150.45490967 78.52794434 151.39810059 79.03245117 152.36987305 79.55224609 C153.23781494 80.03000488 154.10575684 80.50776367 155 81 C155.9381958 81.5151416 156.8763916 82.0302832 157.84301758 82.56103516 C158.55482178 83.03589355 159.26662598 83.51075195 160 84 C160 84.66 160 85.32 160 86 C153.96792662 88.52741566 147.9355918 91.0542065 141.90307617 93.58056641 C139.8515838 94.43979798 137.80015098 95.29917174 135.7487793 96.15869141 C132.79752046 97.39523241 129.84604676 98.6312593 126.89453125 99.8671875 C125.97976517 100.25059296 125.06499908 100.63399841 124.12251282 101.02902222 C120.09310403 102.71578438 116.06410019 104.39798412 112 106 C116.68213204 133.11203434 136.33556085 164.14729534 151 187 C151.48001465 187.75104004 151.9600293 188.50208008 152.45458984 189.27587891 C162.67903279 205.17033325 173.76203639 220.59112806 186 235 C186.8843172 236.0584245 187.76841943 237.11702863 188.65234375 238.17578125 C200.76165419 252.58168505 213.59536174 266.89509739 227.890625 279.16796875 C230.17629546 281.15311587 232.39701378 283.2003983 234.625 285.25 C240.28665596 290.35676166 246.25444265 295.0198815 252.29003906 299.67089844 C253.81913191 300.85941663 255.32893003 302.07266253 256.8359375 303.2890625 C274.8632697 317.66153831 294.75414303 330.04000887 315 341 C315.88510254 341.48629883 316.77020508 341.97259766 317.68212891 342.47363281 C367.98097475 370.02655104 423.1869589 386.19807948 480 393 C481.44101074 393.17789063 481.44101074 393.17789063 482.91113281 393.359375 C529.4490501 398.84402607 579.93764341 396.11855297 625.36425781 384.47070312 C628 384 628 384 631 385 C547.21771613 438.02473415 432.90543045 450.19273987 306.54443359 429.55761719 C291.4604401 426.09864454 276.69480323 421.83973913 262 417 C261.12762695 416.71688965 260.25525391 416.4337793 259.35644531 416.14208984 C229.45047045 406.37746842 201.12466314 392.82398933 174 377 C173.24605957 376.56091309 172.49211914 376.12182617 171.71533203 375.66943359 C149.50151782 362.67801732 128.72854732 347.49829803 109 331 C108.44135254 330.53303711 107.88270508 330.06607422 107.30712891 329.58496094 C100.59851902 323.95933069 94.09500118 318.27362553 87.98828125 311.98828125 C86.16627714 310.16627714 84.29219595 308.52127347 82.3125 306.875 C76.27718033 301.69498512 71.03407951 295.67505402 65.67041016 289.81884766 C64.20985825 288.22850687 62.73914745 286.64885398 61.26171875 285.07421875 C55.29889706 278.65491311 49.87774699 271.91786364 44.53759766 264.98339844 C42.88734495 262.8546825 41.21691622 260.74293915 39.54296875 258.6328125 C32.21478227 249.3671289 25.31768528 239.98189628 19 230 C18.4961377 229.20722656 17.99227539 228.41445312 17.47314453 227.59765625 C2.50141229 203.95949925 -10.38243235 179.4549388 -22 154 C-22.85777542 154.24429749 -22.85777542 154.24429749 -23.73287964 154.49353027 C-29.66884878 156.18356248 -35.60584415 157.8699513 -41.54345703 159.55419922 C-43.76117221 160.1837924 -45.97862133 160.81432356 -48.19580078 161.44580078 C-51.37723926 162.35173565 -54.55960995 163.2543261 -57.7421875 164.15625 C-58.73805878 164.44060913 -59.73393005 164.72496826 -60.75997925 165.01794434 C-61.68078278 165.27821411 -62.6015863 165.53848389 -63.55029297 165.80664062 C-64.3630368 166.03758423 -65.17578064 166.26852783 -66.01315308 166.50646973 C-68 167 -68 167 -70 167 C-69.30418809 162.20393136 -67.48211854 158.05667438 -65.58984375 153.63671875 C-65.23533646 152.79849579 -64.88082916 151.96027283 -64.51557922 151.09664917 C-63.32760484 148.291572 -62.13263464 145.48953318 -60.9375 142.6875 C-60.08596119 140.68168736 -59.23473153 138.67574344 -58.38378906 136.66967773 C-50.71356004 118.60626985 -42.9756066 100.57157272 -35.23535156 82.53808594 C-25.523567 59.90984453 -15.87198215 37.25623888 -6.23387146 14.5965271 C-4.1628143 9.7280331 -2.08693171 4.86171145 0 0 Z " fill="#34A342" transform="translate(1624,1864)"/>
<path d="M0 0 C0.16491943 0.76739502 0.32983887 1.53479004 0.49975586 2.32543945 C5.94624964 27.36740998 12.60895076 51.92066035 24 75 C24.44214844 75.90202148 24.88429688 76.80404297 25.33984375 77.73339844 C31.65901629 90.51302584 38.45009391 102.58357968 47 114 C47.43634766 114.59039063 47.87269531 115.18078125 48.32226562 115.7890625 C67.80378829 141.99531817 92.16720703 162.71115882 121 178 C121.74121094 178.39525879 122.48242188 178.79051758 123.24609375 179.19775391 C179.99552587 208.95629838 248.91651401 210.93088865 309.51953125 192.80859375 C361.10007114 176.65634197 409.85524205 146.1637676 442 102 C442.85649066 100.85005169 443.71326433 99.70031411 444.5703125 98.55078125 C462.56769588 74.15805817 474.4334302 46.95235842 483 18 C483.33 18 483.66 18 484 18 C485.71034704 88.6651078 449.6120677 162.73656886 401.83349609 213.09179688 C380.19583853 235.61109535 380.19583853 235.61109535 369 244 C367.79354731 244.93396196 366.58787891 245.86893754 365.3828125 246.8046875 C324.10763407 278.59178924 276.25613298 299.03501698 225 308 C224.07429199 308.16516113 223.14858398 308.33032227 222.19482422 308.50048828 C191.09592121 313.75886198 156.0348617 313.55245155 125 308 C123.29336182 307.70198486 123.29336182 307.70198486 121.55224609 307.39794922 C90.06885616 301.75098891 60.12066833 291.86358417 31.80175781 276.94140625 C30.02245275 276.01173141 28.22607245 275.11497706 26.4296875 274.21875 C10.21113458 266.03142574 -4.91805274 255.44273565 -19 244 C-19.81090088 243.3493457 -19.81090088 243.3493457 -20.63818359 242.68554688 C-52.23390253 217.2479278 -72.56936389 180.90564084 -77.59765625 140.62109375 C-81.24476036 104.63425065 -72.3661843 68.25907906 -50.5625 39.1875 C-17.67650754 0 -17.67650754 0 0 0 Z " fill="#0191B9" transform="translate(1903,1787)"/>
<path d="M0 0 C37.34293871 -0.06850486 74.6858662 -0.12156362 112.02885512 -0.15319599 C116.44208841 -0.1569479 120.85532158 -0.16083089 125.26855469 -0.16479492 C126.58639321 -0.16597532 126.58639321 -0.16597532 127.93085472 -0.16717956 C142.13807464 -0.1802173 156.34525797 -0.20386212 170.55245622 -0.23145839 C185.14098163 -0.25955806 199.72948794 -0.27618589 214.3180393 -0.28226548 C223.31284613 -0.28637248 232.30754954 -0.29932272 241.30232452 -0.3237494 C247.4785841 -0.33966296 253.65479056 -0.3443877 259.83106913 -0.34050413 C263.38924255 -0.33859129 266.9472358 -0.34142879 270.50537682 -0.35761642 C274.37601488 -0.3750957 278.24642292 -0.36891867 282.11709595 -0.36076355 C283.22414591 -0.36950207 284.33119588 -0.3782406 285.47179282 -0.38724393 C300.87586411 -0.3000693 313.4349434 2.88810586 324.671875 13.5390625 C339.86083008 29.5945016 337.53035871 52.87074321 337.2746582 73.3717041 C337.23315008 77.05955736 337.21534678 80.74752553 337.1953125 84.43554688 C337.15288748 91.62404151 337.08275795 98.81183582 337 106 C330.4 106 323.8 106 317 106 C316.74476563 103.64488281 316.74476563 103.64488281 316.484375 101.2421875 C314.29182652 81.85666203 311.80268965 62.05133817 296.62890625 48.05859375 C280.80388348 35.66663684 261.700685 30.72129878 241.82739258 30.68115234 C240.6465166 30.67099909 239.46564062 30.66084583 238.24898052 30.6503849 C234.46416681 30.61999222 230.67942734 30.60266279 226.89453125 30.5859375 C224.54275888 30.56898285 222.19099259 30.55116401 219.8392334 30.5324707 C211.16372514 30.469528 202.48810239 30.4232556 193.8125 30.375 C164.7003125 30.189375 164.7003125 30.189375 135 30 C135 82.14 135 134.28 135 188 C189.78 188 244.56 188 301 188 C301 197.9 301 207.8 301 218 C246.22 218 191.44 218 135 218 C135 275.42 135 332.84 135 392 C155.0475 391.9175 175.095 391.835 195.75 391.75 C202.0415918 391.73420898 208.33318359 391.71841797 214.81542969 391.70214844 C220.53654628 391.66886169 220.53654628 391.66886169 226.25762939 391.63043213 C228.77338628 391.61597496 231.28919432 391.60905263 233.80499268 391.60845947 C263.36718252 391.58958813 292.52267842 388.06609969 315.0859375 367.0390625 C327.81581075 353.47785058 336.56849725 336.90543837 344 320 C348.48993869 320.58652352 352.22543184 321.7643538 356.375 323.5625 C357.43460938 324.01753906 358.49421875 324.47257812 359.5859375 324.94140625 C360.38257813 325.29074219 361.17921875 325.64007812 362 326 C361.32696159 332.11675064 359.12217107 337.65625594 357.02734375 343.3984375 C356.62600723 344.50619537 356.22467072 345.61395325 355.81117249 346.75527954 C354.95897084 349.10136042 354.1039572 351.44642149 353.24633789 353.79052734 C351.9561304 357.32397752 350.68170171 360.86284313 349.40820312 364.40234375 C333.34509001 408.66968328 333.34509001 408.66968328 316.69140625 417.1796875 C307.48693756 421.11420298 298.3253616 422.30240558 288.38241577 422.24050903 C287.36115054 422.24221788 286.3398853 422.24392673 285.28767264 422.24568737 C281.89141568 422.24896179 278.49535962 422.2380124 275.09912109 422.22705078 C272.65432744 422.22648623 270.20953345 422.22680409 267.76473999 422.22793579 C262.5145107 422.22839012 257.26432621 422.22274517 252.01411057 422.21146011 C244.42333346 422.19515483 236.83258035 422.18999198 229.24178763 422.18748413 C216.92403615 422.18311489 204.60631127 422.16982678 192.28857422 422.15087891 C180.32828911 422.1325001 168.36801124 422.11835341 156.40771484 422.10986328 C155.30049334 422.10907511 155.30049334 422.10907511 154.17090373 422.10827102 C150.46756045 422.1056608 146.76421711 422.10313342 143.06087375 422.10064721 C112.37389679 422.07993873 81.6869521 422.04458483 51 422 C50.99902319 421.25528602 50.99804638 420.51057203 50.99703997 419.74329096 C50.93870916 375.55995901 50.864868 331.37667615 50.77101372 287.19340465 C50.75974618 281.88276154 50.74860763 276.57211816 50.73754883 271.26147461 C50.73534514 270.20426564 50.73314146 269.14705668 50.730871 268.05781107 C50.69554337 250.96210757 50.67065367 233.86640411 50.64965298 216.77067769 C50.62785476 199.21582385 50.59476627 181.66101718 50.55129844 164.1062035 C50.52485091 153.28269246 50.50710479 142.45924016 50.50065396 131.63569843 C50.49537891 124.20351034 50.47909128 116.77139602 50.45433434 109.33924753 C50.44039157 105.05771722 50.43112128 100.77631873 50.43499184 96.49476433 C51.79731471 60.34492191 51.79731471 60.34492191 37 29 C25.29996863 21.23892356 13.56458231 20.68392852 0 20 C0 13.4 0 6.8 0 0 Z " fill="#01B3D3" transform="translate(1161,2310)"/>
<path d="M0 0 C1.29482048 -0.01052147 1.29482048 -0.01052147 2.61579895 -0.02125549 C5.38454461 -0.03865862 8.15307667 -0.04510687 10.921875 -0.046875 C12.33749222 -0.04788712 12.33749222 -0.04788712 13.78170776 -0.04891968 C48.08248524 -0.00987227 81.35279058 6.14550574 107.19921875 30.59375 C125.97002378 49.91408554 133.8886957 78.73069847 133.79212952 105.17553711 C133.79341115 106.47823453 133.79341115 106.47823453 133.79471868 107.80724907 C133.79635724 110.69834372 133.79087885 113.5893795 133.78540039 116.48046875 C133.78511814 118.56044005 133.78527699 120.64041145 133.7858429 122.72038269 C133.7861294 128.35403557 133.78025638 133.98766708 133.77326894 139.621315 C133.76701097 145.51365551 133.76642967 151.40599653 133.76524353 157.29833984 C133.76213742 168.45056624 133.75393373 179.60278281 133.74389404 190.75500488 C133.73271054 203.45385921 133.72721681 216.15271401 133.72219861 228.85157204 C133.71175053 254.96876305 133.69341399 281.08594061 133.671875 307.203125 C105.951875 307.203125 78.231875 307.203125 49.671875 307.203125 C49.65729248 300.93586426 49.64270996 294.66860352 49.62768555 288.21142578 C49.5772812 267.47221591 49.51082413 246.73308021 49.43616009 225.99394417 C49.39129452 213.42354295 49.35185874 200.85316948 49.32543945 188.28271484 C49.30238435 177.31963646 49.26890303 166.35664658 49.22317344 155.39363849 C49.19934219 149.59488249 49.18054747 143.79621358 49.17426109 137.99740982 C49.16816427 132.52596023 49.1480006 127.0547332 49.11759949 121.58336639 C49.10889232 119.58814674 49.10508125 117.59289792 49.10686684 115.59766006 C49.11701519 99.0074217 47.98843314 82.75508404 41.671875 67.203125 C41.32511719 66.34460937 40.97835938 65.48609375 40.62109375 64.6015625 C34.79128108 51.65977905 23.90079078 42.63116924 11.0703125 37.02734375 C3.44398887 34.4065713 -3.35750677 33.84814741 -11.390625 33.890625 C-12.50099121 33.89626465 -13.61135742 33.9019043 -14.75537109 33.90771484 C-32.91143918 34.17498826 -50.76437841 38.87576654 -65.328125 50.203125 C-67.68849134 53.01950976 -67.68849134 53.01950976 -66.90234375 56.13671875 C-66.60972656 57.29300781 -66.31710937 58.44929688 -66.015625 59.640625 C-62.57034554 73.34379534 -63.18985427 87.46745177 -63.21459961 101.49511719 C-63.21488204 103.74316405 -63.21472266 105.991211 -63.2141571 108.23925781 C-63.21387131 114.31274183 -63.21973281 120.38620592 -63.22673106 126.45968533 C-63.23300089 132.81778804 -63.23357127 139.17589125 -63.23475647 145.53399658 C-63.23750705 156.19617089 -63.24374461 166.85833737 -63.25268555 177.52050781 C-63.26188048 188.49706995 -63.26895111 199.4736301 -63.27319336 210.45019531 C-63.27345608 211.12807762 -63.27371881 211.80595993 -63.27398949 212.50438413 C-63.27529464 215.90550475 -63.27655832 219.30662539 -63.27780139 222.70774603 C-63.28814901 250.87287855 -63.30657378 279.0379987 -63.328125 307.203125 C-91.048125 307.203125 -118.768125 307.203125 -147.328125 307.203125 C-147.357854 297.18179199 -147.357854 297.18179199 -147.38818359 286.95800781 C-147.45519105 264.84578794 -147.5327317 242.73361417 -147.61565208 220.62144852 C-147.62564234 217.94717676 -147.63559138 215.27290485 -147.64550781 212.59863281 C-147.64797381 211.93398131 -147.6504398 211.26932981 -147.65298052 210.58453736 C-147.69010539 200.52804967 -147.72155975 190.4715548 -147.75 180.41503906 C-147.78306606 168.72608585 -147.82297669 157.03717887 -147.87091506 145.34827685 C-147.89603554 139.1660578 -147.91785852 132.98386885 -147.93146896 126.80161285 C-147.94442169 120.96742194 -147.96661447 115.13333501 -147.99550819 109.29920197 C-148.00448185 107.17258844 -148.01024988 105.04595822 -148.01233864 102.91932678 C-147.38827153 67.81351442 -147.38827153 67.81351442 -160.78125 36.40234375 C-170.47318443 26.92212633 -185.72113632 27.22531327 -198.328125 26.203125 C-198.328125 19.603125 -198.328125 13.003125 -198.328125 6.203125 C-188.71256567 6.13486996 -179.09717188 6.08003592 -169.48142338 6.04768848 C-165.01462234 6.0321496 -160.54799814 6.01113177 -156.08129883 5.97680664 C-151.75647221 5.94378645 -147.43181377 5.92618392 -143.10687065 5.91849327 C-141.47136227 5.91302514 -139.83586123 5.90235213 -138.2004261 5.88593483 C-119.60402772 5.70698118 -100.62132694 7.01429575 -86.640625 20.703125 C-84.30597324 23.06461184 -82.27892594 25.51561675 -80.328125 28.203125 C-79.10802734 27.27693359 -79.10802734 27.27693359 -77.86328125 26.33203125 C-54.64977392 9.03967036 -29.06711833 0.15860044 0 0 Z " fill="#019DC6" transform="translate(1733.328125,2424.796875)"/>
<path d="M0 0 C1.12986076 -0.01058945 1.12986076 -0.01058945 2.282547 -0.02139282 C34.55290784 -0.25497296 34.55290784 -0.25497296 49.86328125 3.203125 C51.12785156 3.48518799 51.12785156 3.48518799 52.41796875 3.77294922 C78.47874809 9.84832007 100.79963118 22.61536634 119.86328125 41.203125 C120.62769531 41.8940625 121.39210938 42.585 122.1796875 43.296875 C147.02998013 66.41342628 162.30284925 104.74937594 163.97042847 138.36289978 C164.02678917 140.67074163 164.05408001 142.97665849 164.06640625 145.28515625 C164.07210632 146.13881271 164.0778064 146.99246918 164.0836792 147.87199402 C164.09307808 149.67466007 164.0996427 151.4773429 164.10351562 153.2800293 C164.11311915 155.97021647 164.14414867 158.65960421 164.17578125 161.34960938 C164.27124867 176.81524221 162.60925541 191.89898743 158.17578125 206.765625 C157.92159424 207.63147217 157.66740723 208.49731934 157.40551758 209.3894043 C146.43983201 245.32573812 122.91418548 277.16714962 89.796875 295.5078125 C64.9746943 308.65679419 39.10448683 313.63807911 11.17578125 313.515625 C10.29176636 313.51346985 9.40775146 313.5113147 8.49694824 313.50909424 C-4.22846485 313.45927535 -16.72191547 313.28880523 -29.13671875 310.203125 C-30.34666504 309.90510986 -30.34666504 309.90510986 -31.58105469 309.60107422 C-48.08666548 305.37819373 -64.20469199 299.14243677 -78.13671875 289.203125 C-79.08546875 288.53796875 -80.03421875 287.8728125 -81.01171875 287.1875 C-115.04562525 262.54836977 -134.61596873 226.38050704 -141.41015625 185.25390625 C-147.82717908 142.49148815 -140.4053692 95.31334519 -114.66235352 59.73657227 C-112.22998901 56.49458732 -109.71773595 53.32779026 -107.13671875 50.203125 C-106.69827637 49.67219238 -106.25983398 49.14125977 -105.80810547 48.59423828 C-99.92938222 41.58908018 -93.42927991 35.69968328 -86.13671875 30.203125 C-84.69232422 29.11064453 -84.69232422 29.11064453 -83.21875 27.99609375 C-59.07951764 10.52650988 -29.94584832 0.18789653 0 0 Z M-24.28125 43.15625 C-45.294644 66.33734149 -52.36266235 97.78527399 -55.13671875 128.203125 C-55.24757813 129.40839844 -55.3584375 130.61367187 -55.47265625 131.85546875 C-58.93174085 177.1507793 -56.6536025 232.4018713 -25.69921875 268.578125 C-16.49065081 278.38383557 -5.22078572 283.23116635 8.1796875 284.40625 C22.63429742 284.70791142 34.99497395 280.11347079 45.48828125 270.203125 C65.9678102 248.61343613 72.22242489 218.82361523 75.86328125 190.203125 C75.96785645 189.40173096 76.07243164 188.60033691 76.18017578 187.7746582 C77.28615348 177.7822783 77.10722636 167.68075388 77.11328125 157.640625 C77.11395599 156.63724091 77.11463074 155.63385681 77.11532593 154.60006714 C77.07533747 117.13537103 73.54901669 71.99152628 45.6484375 43.83203125 C26.08327486 25.36449344 -4.40520427 24.00065795 -24.28125 43.15625 Z " fill="#019AC4" transform="translate(2841.13671875,2424.796875)"/>
<path d="M0 0 C0.75527985 -0.00100708 1.51055969 -0.00201416 2.28872681 -0.00305176 C14.31511123 0.00777895 25.90665509 0.65256021 37.6875 3.25 C38.68354248 3.45882812 38.68354248 3.45882812 39.69970703 3.671875 C68.26858102 9.81969745 91.70064948 27.56705355 107.70678711 51.79638672 C118.91852587 69.35785668 127.17999906 88.61313139 135.68341064 107.57678223 C139.09359309 115.17387937 142.57151582 122.73940863 146.05541992 130.30291748 C147.83542676 134.16735256 149.61310048 138.03286013 151.390625 141.8984375 C151.74302246 142.66471466 152.09541992 143.43099182 152.45849609 144.2204895 C157.10155276 154.32054041 161.71899837 164.4323122 166.33569336 174.54443359 C170.10030346 182.78863577 173.88200332 191.02456373 177.6875 199.25 C182.76693767 189.40528583 187.35365479 179.40545916 191.76397705 169.2461853 C193.72120692 164.73868589 195.69157726 160.2369265 197.66015625 155.734375 C198.07021912 154.79567062 198.48028198 153.85696625 198.902771 152.88981628 C203.49482611 142.38592327 208.15107665 131.91074876 212.8125 121.4375 C213.66155613 119.52889728 214.51059587 117.62028726 215.35961914 115.71166992 C218.51669185 108.61577933 221.67602461 101.52089572 224.8359375 94.42626953 C237.90367058 65.08532031 250.81344108 35.67642038 263.6875 6.25 C275.5675 6.25 287.4475 6.25 299.6875 6.25 C296.31262803 16.37461591 296.31262803 16.37461591 294.82836914 19.68847656 C294.32372383 20.82367737 294.32372383 20.82367737 293.80888367 21.98181152 C293.2712011 23.17417419 293.2712011 23.17417419 292.72265625 24.390625 C292.33757401 25.25385376 291.95249176 26.11708252 291.55574036 27.00646973 C290.29099518 29.83937805 289.02044245 32.6696427 287.75 35.5 C286.85322147 37.5066318 285.9569082 39.51347159 285.06103516 41.52050781 C283.19929122 45.69028888 281.33555426 49.85916991 279.47021484 54.02734375 C275.5691549 62.74706101 271.68579736 71.47463888 267.80557251 80.2036438 C266.97373935 82.0748957 266.14168612 83.94604979 265.30941772 85.81710815 C258.97427119 100.06043426 252.69824294 114.32888091 246.44769287 128.60949707 C240.57268264 142.02565663 234.59299054 155.39199776 228.56295776 168.73910522 C222.45052809 182.27316625 216.44751923 195.85239662 210.49511719 209.45751953 C205.11700363 221.74802234 199.68160802 234.01092255 194.1875 246.25 C188.0000976 260.03532234 181.88246258 273.85005336 175.8125 287.6875 C175.42328369 288.5746167 175.03406738 289.4617334 174.63305664 290.37573242 C173.52820536 292.89475571 172.42402804 295.41407265 171.3203125 297.93359375 C170.83396835 299.04352943 170.83396835 299.04352943 170.33779907 300.17588806 C170.03183807 300.87508865 169.72587708 301.57428925 169.41064453 302.29467773 C169.14881378 302.89287827 168.88698303 303.4910788 168.61721802 304.10740662 C167.29679807 307.15039707 165.99417845 310.20108361 164.6875 313.25 C156.4375 313.25 148.1875 313.25 139.6875 313.25 C127.90175333 290.15955755 117.22967868 266.49906562 106.39257812 242.953125 C102.97497185 235.52898295 99.54956813 228.10843249 96.125 220.6875 C95.55749023 219.45764374 95.55749023 219.45764374 94.97851562 218.20294189 C83.22774141 192.7398244 71.43332011 167.29686067 59.61035156 141.8671875 C56.49755156 135.16632088 53.40025794 128.45852898 50.3125 121.74609375 C31.23709284 77.4780657 31.23709284 77.4780657 6.6875 36.25 C6.05328125 35.35796875 5.4190625 34.4659375 4.765625 33.546875 C-3.24123646 22.8497081 -12.41997771 17.82850446 -25.3125 15.25 C-25.3125 10.63 -25.3125 6.01 -25.3125 1.25 C-16.88671546 0.07738801 -8.48987007 0.00784934 0 0 Z " fill="#01A1C8" transform="translate(1914.3125,2424.75)"/>
<path d="M0 0 C2.48665893 2.17536333 4.81997692 4.42354418 7.12109375 6.79296875 C7.68183594 7.33308594 8.24257812 7.87320313 8.8203125 8.4296875 C13.34317768 13.14248928 20.12109375 22.98251727 20.12109375 29.79296875 C17.82492244 31.6677682 15.51710491 33.42832345 13.12109375 35.16796875 C11.66261818 36.2432967 10.20428935 37.31882369 8.74609375 38.39453125 C7.60914062 39.22839355 7.60914062 39.22839355 6.44921875 40.07910156 C2.65310432 42.8736405 -1.11159494 45.70979339 -4.87890625 48.54296875 C-6.23292329 49.55879323 -7.5870761 50.57443676 -8.94140625 51.58984375 C-9.91078125 52.316875 -10.88015625 53.04390625 -11.87890625 53.79296875 C-15.11057406 52.41095962 -16.79406002 50.92491967 -18.94140625 48.16796875 C-27.29706981 38.37228657 -39.02121773 31.40635348 -51.87890625 29.79296875 C-71.68276516 28.73905052 -90.31775149 32.61043676 -106.87890625 43.79296875 C-107.76096206 44.34838348 -108.64301786 44.90379822 -109.55180264 45.4760437 C-112.19630053 47.61194056 -112.19630053 47.61194056 -112.15242863 50.87747192 C-112.0026327 52.10916107 -111.85283678 53.34085022 -111.69850159 54.60986328 C-111.55415764 56.05977287 -111.41669509 57.5103787 -111.28494453 58.96148682 C-111.21172391 59.74253029 -111.13850329 60.52357376 -111.06306386 61.32828522 C-110.7364875 65.69903792 -110.75477875 70.06777051 -110.75865173 74.44873047 C-110.75756476 75.41040571 -110.75647778 76.37208096 -110.75535786 77.36289787 C-110.75445631 80.48283427 -110.75988763 83.60272508 -110.76538086 86.72265625 C-110.7656635 88.9909973 -110.7655035 91.25933844 -110.76493835 93.52767944 C-110.76465337 99.63811548 -110.77050152 105.74853158 -110.77751231 111.85896301 C-110.78379587 118.26241961 -110.78435359 124.66587674 -110.78553772 131.06933594 C-110.78828508 141.80176195 -110.79451623 152.53417932 -110.8034668 163.26660156 C-110.81266939 174.31282516 -110.81973624 185.35904677 -110.82397461 196.40527344 C-110.82423733 197.08807884 -110.82450006 197.77088425 -110.82477074 198.47438073 C-110.82607594 201.90038696 -110.82733961 205.3263932 -110.82858264 208.75239944 C-110.83892113 237.09926194 -110.85734087 265.44611244 -110.87890625 293.79296875 C-138.59890625 293.79296875 -166.31890625 293.79296875 -194.87890625 293.79296875 C-194.89348877 286.86449951 -194.90807129 279.93603027 -194.9230957 272.79760742 C-194.97197652 250.56400525 -195.03541937 228.33046017 -195.10789253 206.0969233 C-195.11915909 202.63647462 -195.1302978 199.17602553 -195.14135742 195.71557617 C-195.14356111 195.02673744 -195.14576479 194.33789871 -195.14803525 193.62818608 C-195.18329288 182.51214144 -195.20822185 171.39609685 -195.22925327 160.28001722 C-195.2511077 148.85206223 -195.28446637 137.4241928 -195.32760781 125.99629575 C-195.35144755 119.58661658 -195.37023678 113.17701634 -195.37652016 106.76729393 C-195.38261304 100.72048691 -195.40276307 94.6738816 -195.43318176 88.62714958 C-195.4418951 86.42110348 -195.44569868 84.21503094 -195.44391441 82.00896835 C-195.0555486 49.74022486 -195.0555486 49.74022486 -208.87890625 21.79296875 C-219.92655559 14.2715091 -231.92833074 13.62848975 -244.87890625 12.79296875 C-244.87890625 6.19296875 -244.87890625 -0.40703125 -244.87890625 -7.20703125 C-235.3419143 -7.25246214 -225.80499582 -7.28905005 -216.26791954 -7.31065559 C-211.83807689 -7.32103227 -207.40831298 -7.33507774 -202.97851562 -7.35791016 C-198.69261542 -7.3798592 -194.4067903 -7.39164568 -190.12083817 -7.39678574 C-188.49682053 -7.40044234 -186.87280636 -7.40758093 -185.24882126 -7.41849136 C-166.94784059 -7.53639998 -147.73040918 -6.83602008 -133.87890625 6.79296875 C-131.70981781 9.35807333 -129.73344955 11.99297201 -127.87890625 14.79296875 C-127.38003906 14.45265625 -126.88117187 14.11234375 -126.3671875 13.76171875 C-91.10605102 -10.04113101 -38.3851867 -29.42690703 0 0 Z " fill="#01A4CA" transform="translate(2659.87890625,2438.20703125)"/>
<path d="M0 0 C11.06705281 -0.06813827 22.13396326 -0.12302347 33.2011795 -0.15543652 C38.34171933 -0.17100357 43.48210656 -0.19207542 48.62255859 -0.22631836 C53.59576387 -0.25923482 58.5688236 -0.27692012 63.54212952 -0.28463173 C65.42686754 -0.29011792 67.31159881 -0.30082848 69.1962738 -0.31719017 C86.82048048 -0.46392211 103.55716482 0.48033629 118.375 11.25 C136.84934555 30.60407629 135.46966512 63.62087648 135.34057617 88.48046875 C135.33972708 90.81895436 135.34021052 93.15744076 135.34190369 95.4959259 C135.34275408 101.76090635 135.32528565 108.02570965 135.30418181 114.29064941 C135.28717847 120.19978315 135.28429819 126.10891127 135.2812262 132.01806617 C135.2747039 143.70136725 135.25485918 155.38460453 135.22631836 167.06787109 C135.19866721 178.3989226 135.1774882 189.7299566 135.16479492 201.06103516 C135.16361267 202.11345404 135.16361267 202.11345404 135.16240653 203.18713391 C135.15849065 206.70786346 135.15469971 210.22859314 135.15097082 213.74932289 C135.1200068 242.83293054 135.06477628 271.91644562 135 301 C107.28 301 79.56 301 51 301 C50.98541748 294.06629395 50.97083496 287.13258789 50.95581055 279.98876953 C50.90693931 257.74343528 50.84349903 235.49815814 50.77101372 213.25288922 C50.75974704 209.79115177 50.74860835 206.32941391 50.73754883 202.86767578 C50.73534514 202.17857474 50.73314146 201.4894737 50.730871 200.77949081 C50.69560448 189.65630408 50.67068048 178.5331174 50.64965298 167.40989567 C50.62780571 155.97629542 50.59445327 144.54278079 50.55129844 133.10923851 C50.52744909 126.69567879 50.50866611 120.2821981 50.50238609 113.86859512 C50.49629762 107.81932878 50.47616307 101.77026442 50.44572449 95.72107315 C50.4370042 93.51299446 50.43320905 91.30488931 50.43499184 89.09679413 C50.58635633 58.28569928 50.58635633 58.28569928 38 31 C27.6534293 20.83860282 13.62834329 21.18112309 0 20 C0 13.4 0 6.8 0 0 Z " fill="#019CC5" transform="translate(2243,2431)"/>
<path d="M0 0 C21 0 21 0 25.8125 4.75 C26.92218642 6.80858691 27.98407463 8.89356233 29 11 C30.30616441 12.99720129 31.6400245 14.97654485 33 16.9375 C35.0048099 19.96820871 37.0023777 23.00361299 39 26.0390625 C42.91309217 31.9545573 46.9534455 37.73960047 51.15234375 43.45556641 C53.70277843 46.96780613 56.11521498 50.56157687 58.5 54.1875 C58.94085937 54.85330078 59.38171875 55.51910156 59.8359375 56.20507812 C60.89284075 57.80192108 61.94677056 59.40073152 63 61 C68.42938662 53.65735836 73.60441876 46.18929046 78.625 38.5625 C85.42033298 28.29888299 92.39281281 18.17559362 99.51464844 8.13623047 C101.38191473 5.45073078 103.18564765 2.72152853 105 0 C111.6 0 118.2 0 125 0 C125 35.97 125 71.94 125 109 C118.07 109 111.14 109 104 109 C103.67 85.9 103.34 62.8 103 39 C98.05 46.26 93.1 53.52 88 61 C83.53515625 67.5390625 83.53515625 67.5390625 81.75219727 70.14990234 C76.11918349 78.40123794 70.50541152 86.66273143 65 95 C61.92462239 93.67351872 60.29111991 92.44310023 58.40625 89.68359375 C57.93960938 89.01070312 57.47296875 88.3378125 56.9921875 87.64453125 C56.49976562 86.91621094 56.00734375 86.18789062 55.5 85.4375 C54.42731425 83.88395512 53.35439102 82.33057418 52.28125 80.77734375 C51.73597656 79.98183105 51.19070312 79.18631836 50.62890625 78.36669922 C48.11948681 74.72066924 45.55896373 71.11133861 43 67.5 C42.01275191 66.10175234 41.02577445 64.70331356 40.0390625 63.3046875 C37.90993031 60.288301 35.77950893 57.27282922 33.6484375 54.2578125 C33.10058594 53.48244141 32.55273438 52.70707031 31.98828125 51.90820312 C30.93652032 50.41969402 29.88445184 48.93140216 28.83203125 47.44335938 C28.35894531 46.77369141 27.88585938 46.10402344 27.3984375 45.4140625 C26.98255371 44.8257666 26.56666992 44.2374707 26.13818359 43.63134766 C25.07115334 42.1019834 24.03440932 40.55161398 23 39 C22.67 62.1 22.34 85.2 22 109 C14.74 109 7.48 109 0 109 C0 73.03 0 37.06 0 0 Z " fill="#3EA742" transform="translate(2071,2846)"/>
<path d="M0 0 C1.12254936 -0.0098568 1.12254936 -0.0098568 2.26777649 -0.01991272 C4.74533187 -0.03962743 7.22282661 -0.05130578 9.70043945 -0.0612793 C10.54824289 -0.06535482 11.39604633 -0.06943035 12.26954079 -0.07362938 C16.75911846 -0.09448486 21.24866563 -0.1087874 25.73828125 -0.11816406 C30.36400363 -0.1292122 34.9892428 -0.16359492 39.61479473 -0.20333576 C43.18114585 -0.22954906 46.74738282 -0.23786019 50.31382179 -0.24144554 C52.01817898 -0.24630132 53.72253141 -0.25788645 55.42679405 -0.27648354 C72.15074531 -0.44759655 72.15074531 -0.44759655 78.6262207 4.17700195 C84.33907979 10.91415329 82.98865486 19.88128678 82.6262207 28.17700195 C80.25258101 28.68434479 77.87764645 29.18302581 75.5012207 29.67700195 C74.83606445 29.82008789 74.1709082 29.96317383 73.4855957 30.1105957 C69.34024619 30.96405001 65.93792964 31.17700195 61.6262207 31.17700195 C61.6262207 27.21700195 61.6262207 23.25700195 61.6262207 19.17700195 C32.9162207 19.67200195 32.9162207 19.67200195 3.6262207 20.17700195 C3.2962207 28.09700195 2.9662207 36.01700195 2.6262207 44.17700195 C4.58366211 44.1612915 6.54110352 44.14558105 8.55786133 44.12939453 C15.04778385 44.08088811 21.53766326 44.04648834 28.02771759 44.02156544 C31.96006966 44.00595407 35.89222437 43.98479947 39.82446289 43.95068359 C43.62405825 43.91792733 47.42346457 43.90011492 51.22319031 43.89237022 C52.66797356 43.88685574 54.11274725 43.87608764 55.55744934 43.85981178 C72.27741846 43.67905232 72.27741846 43.67905232 79.5012207 49.48950195 C83.63826932 54.72165167 83.93483215 60.10388937 83.92700195 66.57543945 C83.93128708 67.36923004 83.9355722 68.16302063 83.93998718 68.98086548 C83.94570686 70.653331 83.94624824 72.32582138 83.94189453 73.99829102 C83.93873877 76.53746648 83.96220772 79.07547056 83.98754883 81.61450195 C83.98982271 83.247313 83.9905249 84.88012714 83.98950195 86.51293945 C83.9987117 87.26215668 84.00792145 88.0113739 84.01741028 88.78329468 C83.96286944 95.09477585 82.8672939 100.87535921 78.3137207 105.55200195 C73.0166518 108.75488082 68.08488543 109.47363311 61.98779297 109.45166016 C61.24713593 109.45677109 60.50647888 109.46188202 59.74337769 109.46714783 C57.30971053 109.48097933 54.8763286 109.48009203 52.44262695 109.4777832 C50.74161169 109.48167352 49.0405974 109.48600888 47.33958435 109.49076843 C43.7797429 109.49821667 40.22000066 109.4979494 36.66015625 109.49267578 C32.10958851 109.48688134 27.55942781 109.5038182 23.00892735 109.52702045 C19.49750922 109.54178717 15.98618848 109.54262553 12.4747448 109.53951073 C10.79749686 109.54002241 9.12024325 109.54523127 7.44302559 109.55532265 C5.09309928 109.56772785 2.74395772 109.56087169 0.39404297 109.54931641 C-0.2913707 109.55696014 -0.97678436 109.56460388 -1.68296814 109.57247925 C-7.91457176 109.50511239 -12.36100721 107.83194789 -17.1862793 103.86450195 C-21.24848765 98.87378883 -21.61751076 94.09476961 -21.4987793 87.80200195 C-21.48073242 86.55676758 -21.46268555 85.3115332 -21.4440918 84.02856445 C-21.42088867 83.08754883 -21.39768555 82.1465332 -21.3737793 81.17700195 C-16.58033538 79.37757032 -12.04691474 78.60884872 -6.9987793 78.05200195 C-6.26272461 77.96563477 -5.52666992 77.87926758 -4.76831055 77.7902832 C-2.97078747 77.5801831 -1.17236588 77.37779428 0.6262207 77.17700195 C0.6262207 81.46700195 0.6262207 85.75700195 0.6262207 90.17700195 C20.4262207 89.84700195 40.2262207 89.51700195 60.6262207 89.17700195 C60.9562207 80.92700195 61.2862207 72.67700195 61.6262207 64.17700195 C59.56742676 64.16241943 57.50863281 64.14783691 55.38745117 64.1328125 C48.57403246 64.08240424 41.7608408 64.01579827 34.94764519 63.94128704 C30.81806273 63.89661963 26.6885781 63.85735568 22.55883789 63.83056641 C18.57103574 63.80449695 14.58361077 63.76406926 10.59604263 63.71381569 C9.07711617 63.6971715 7.5581245 63.68564198 6.03911972 63.67938805 C3.90613307 63.66971988 1.77410602 63.6416307 -0.35864258 63.609375 C-1.5710965 63.59827194 -2.78355042 63.58716888 -4.03274536 63.57572937 C-8.91216768 62.9934068 -12.2066366 61.37656528 -15.6237793 57.86450195 C-19.08837475 52.54387322 -19.68256336 47.44614557 -19.67456055 41.21606445 C-19.67884567 40.46666595 -19.6831308 39.71726746 -19.68754578 38.94515991 C-19.69326302 37.36685186 -19.69380865 35.78851747 -19.68945312 34.21020508 C-19.68629756 31.81585972 -19.70976815 29.42275705 -19.73510742 27.02856445 C-19.73738138 25.48689933 -19.73808346 23.94523092 -19.73706055 22.40356445 C-19.74627029 21.69809479 -19.75548004 20.99262512 -19.76496887 20.26577759 C-19.7139729 14.69233437 -18.81191686 8.87784959 -14.95722961 4.6078186 C-10.11719983 0.42537393 -6.12999368 0.02334686 0 0 Z " fill="#059244" transform="translate(2529.373779296875,2845.822998046875)"/>
<path d="M0 0 C14.355 -0.0825 28.71 -0.165 43.5 -0.25 C48.02138672 -0.28641602 52.54277344 -0.32283203 57.20117188 -0.36035156 C62.75097656 -0.37841797 62.75097656 -0.37841797 65.35461426 -0.3817749 C67.16096953 -0.38789028 68.96730914 -0.40190263 70.77355957 -0.42230225 C73.52054922 -0.45175756 76.26654701 -0.45561833 79.01367188 -0.45410156 C79.8093029 -0.468494 80.60493393 -0.48288643 81.42467499 -0.497715 C86.99561627 -0.45678259 91.38185053 0.8014605 96 4 C100.63977296 9.82945833 101.17423496 14.52754432 101.23828125 21.76171875 C101.246353 22.62634232 101.25442474 23.49096588 101.26274109 24.38179016 C101.27657082 26.21340945 101.28729795 28.04505439 101.29516602 29.87670898 C101.30666728 31.74169513 101.32708966 33.60664884 101.35668945 35.47143555 C101.39956492 38.17258983 101.4155643 40.87276551 101.42578125 43.57421875 C101.44328934 44.39846848 101.46079742 45.2227182 101.47883606 46.07194519 C101.45319631 53.0002816 99.53411087 58.24867963 94.8125 63.375 C89.00851247 66.72841502 82.78073605 67.07210565 76.1875 67.55078125 C75.02605469 67.63626221 73.86460937 67.72174316 72.66796875 67.80981445 C71.78753906 67.87257568 70.90710937 67.93533691 70 68 C74.26509862 72.28999368 78.53360568 76.57655737 82.80517578 80.86010742 C84.25498917 82.31492017 85.70390017 83.77063283 87.15185547 85.22729492 C89.24464643 87.33234551 91.34076374 89.43403619 93.4375 91.53515625 C94.07429688 92.17711441 94.71109375 92.81907257 95.3671875 93.48048401 C99.22883174 97.34259866 103.20683396 100.95854932 107.41821289 104.43821716 C109 106 109 106 110 109 C88.63398898 112.71665669 88.63398898 112.71665669 80.19360352 107.98797607 C73.03122775 102.94061893 67.29605044 96.03803454 61.72392273 89.34436035 C58.64155772 85.64653508 55.36664384 82.52350163 51.66748047 79.46020508 C49.35405213 77.43434639 47.5931055 75.03013316 45.6875 72.625 C38.75981582 66.06355684 38.75981582 66.06355684 21 67 C21 80.86 21 94.72 21 109 C14.07 109 7.14 109 0 109 C0 73.03 0 37.06 0 0 Z M21 19 C21 28.24 21 37.48 21 47 C39.81 47 58.62 47 78 47 C80.47457438 42.05085125 80.33188719 38.4284141 80.3125 33 C80.32861328 32.09765625 80.34472656 31.1953125 80.36132812 30.265625 C80.36197266 29.39421875 80.36261719 28.5228125 80.36328125 27.625 C80.36626221 26.83351563 80.36924316 26.04203125 80.37231445 25.2265625 C79.89064326 22.34601084 79.02423062 21.10202165 77 19 C74.44536814 18.42040262 74.44536814 18.42040262 71.51879883 18.54589844 C70.39786331 18.54620056 69.2769278 18.54650269 68.12202454 18.54681396 C66.91257675 18.56745911 65.70312897 18.58810425 64.45703125 18.609375 C63.21829758 18.61503479 61.9795639 18.62069458 60.70329285 18.62652588 C57.41335722 18.64513776 54.12420519 18.68106332 50.83453369 18.7253418 C47.47637697 18.76629369 44.11810207 18.78475587 40.75976562 18.8046875 C34.17255154 18.84543736 27.58728258 18.92372397 21 19 Z " fill="#189944" transform="translate(2371,2846)"/>
<path d="M0 0 C0.81868561 -0.00686325 1.63737122 -0.0137265 2.48086548 -0.02079773 C5.17435279 -0.03902798 7.86725553 -0.03523367 10.56079102 -0.02954102 C12.44116911 -0.03410465 14.32154554 -0.03941077 16.20191956 -0.04542542 C20.13842556 -0.05434912 24.0747286 -0.05194184 28.01123047 -0.04199219 C33.04617791 -0.03050384 38.08042388 -0.05071571 43.1152792 -0.07990932 C46.99730348 -0.09828953 50.87916023 -0.09797523 54.76121712 -0.0922718 C56.61709642 -0.09211881 58.47298724 -0.09814496 60.328825 -0.11056328 C62.92799266 -0.12550597 65.52587159 -0.11477278 68.125 -0.09765625 C69.26532936 -0.1121582 69.26532936 -0.1121582 70.42869568 -0.12695312 C75.90734884 -0.05172103 79.09851483 1.29592885 83.62719727 4.40405273 C91.03235396 13.01004564 89.92610618 24.60049503 89.89282227 35.27905273 C89.89417244 36.81404685 89.89611591 38.34904054 89.89862061 39.8840332 C89.90155528 43.08801376 89.89732792 46.29188217 89.88793945 49.49584961 C89.87654589 53.58085053 89.88311429 57.66558853 89.89508438 61.75057983 C89.90234796 64.91636091 89.89999451 68.08208074 89.8948288 71.24786377 C89.89350471 72.7531945 89.89509597 74.25853098 89.8997879 75.76385498 C89.94959248 96.22859092 89.94959248 96.22859092 85.00219727 102.77905273 C84.55618164 103.40553711 84.11016602 104.03202148 83.65063477 104.67749023 C78.46148779 109.10529518 72.08609132 109.84880963 65.50219727 109.79223633 C64.34929199 109.80012177 64.34929199 109.80012177 63.1730957 109.8081665 C60.65758335 109.8212629 58.14271494 109.81266569 55.62719727 109.80249023 C53.86417521 109.80451395 52.10115397 109.80742787 50.33813477 109.81118774 C46.65315741 109.81559706 42.96839905 109.80922508 39.28344727 109.79516602 C34.5760759 109.77807494 29.8692178 109.78792361 25.16186523 109.80588341 C21.52429383 109.81675899 17.88684274 109.81325764 14.24926758 109.80550003 C12.51424091 109.80350845 10.77920307 109.80592043 9.04418945 109.81293869 C6.61323385 109.82061569 4.1830927 109.80886274 1.75219727 109.79223633 C1.04546875 109.79830902 0.33874023 109.80438171 -0.3894043 109.81063843 C-6.47976627 109.73403469 -12.10886928 108.48442402 -16.68530273 104.27905273 C-22.1106517 95.0358656 -21.81625168 85.78546913 -21.77124023 75.43530273 C-21.77326504 73.7882067 -21.77617985 72.14111155 -21.77993774 70.49401855 C-21.784342 67.05460003 -21.77799168 63.61541644 -21.76391602 60.17602539 C-21.74682516 55.78825424 -21.7566766 51.40103378 -21.77463341 47.01328278 C-21.78552286 43.61586428 -21.78200136 40.2185743 -21.77425003 36.82115173 C-21.77226226 35.20417718 -21.77465675 33.58719059 -21.78168869 31.9702301 C-21.84301679 13.90853021 -21.84301679 13.90853021 -16.56030273 5.52905273 C-11.62532187 0.73507133 -6.6510302 -0.03927955 0 0 Z M0.62719727 19.40405273 C-0.78411245 22.22667217 -0.50786734 24.59308285 -0.51806641 27.74975586 C-0.52142502 28.40032455 -0.52478363 29.05089325 -0.52824402 29.72117615 C-0.5377585 31.87590432 -0.53969724 34.03055485 -0.54077148 36.18530273 C-0.54398325 37.6798099 -0.54734725 39.17431675 -0.55085754 40.66882324 C-0.55684972 43.80274179 -0.55869731 46.93663276 -0.55810547 50.07055664 C-0.55800373 54.09253326 -0.57166736 58.11433379 -0.58887768 62.13626862 C-0.59997729 65.22284768 -0.60202532 68.30938385 -0.60149574 71.39598083 C-0.6026785 72.87919218 -0.60711678 74.36240454 -0.61482811 75.84559631 C-0.62458904 77.91664096 -0.62176594 79.98729919 -0.61572266 82.05834961 C-0.61714767 83.23812378 -0.61857269 84.41789795 -0.62004089 85.63342285 C-0.6587226 88.54577218 -0.6587226 88.54577218 1.62719727 90.40405273 C4.45352211 90.70466142 4.45352211 90.70466142 7.80517578 90.64697266 C9.75213097 90.6515876 9.75213097 90.6515876 11.73841858 90.65629578 C13.16098202 90.64939855 14.58354371 90.64213162 16.00610352 90.63452148 C17.45816507 90.6333298 18.91022741 90.6328765 20.36228943 90.63313293 C23.40628887 90.63156778 26.45017075 90.62327496 29.49414062 90.60986328 C33.40407503 90.59285825 37.31388034 90.58904934 41.22384739 90.58980846 C44.2220331 90.58953711 47.22019035 90.58406178 50.21836662 90.57680702 C51.66052981 90.57361591 53.10269622 90.57165192 54.54486275 90.57091331 C56.55612465 90.5687553 58.56737463 90.55922622 60.57861328 90.54931641 C62.29831078 90.54359871 62.29831078 90.54359871 64.05274963 90.5377655 C66.55877174 90.69563772 66.55877174 90.69563772 67.62719727 89.40405273 C67.7267202 87.2620495 67.75519405 85.11672569 67.7565918 82.97241211 C67.75834412 82.30087601 67.76009644 81.6293399 67.76190186 80.93745422 C67.76631956 78.70754446 67.76338269 76.47771337 67.76000977 74.24780273 C67.76068283 72.70463038 67.76165287 71.16145812 67.76290894 69.61828613 C67.7643858 66.38003533 67.76223173 63.14181206 67.75756836 59.90356445 C67.75187107 55.74362751 67.75515014 51.58375507 67.76114082 47.4238205 C67.76474675 44.23605866 67.7636077 41.04831222 67.76101303 37.86054993 C67.76034385 36.32627861 67.76117188 34.79200591 67.76349258 33.25773621 C67.76601964 31.11701733 67.76217781 28.97640431 67.7565918 26.83569336 C67.7557962 25.61515259 67.75500061 24.39461182 67.75418091 23.13708496 C67.93869615 20.49104289 67.93869615 20.49104289 66.62719727 19.40405273 C64.57163065 19.30991586 62.51279545 19.28662276 60.45507812 19.29052734 C59.4892556 19.2903083 59.4892556 19.2903083 58.50392151 19.29008484 C56.36659424 19.29078388 54.22935314 19.29857583 52.09204102 19.30639648 C50.61373441 19.3082607 49.13542719 19.30968458 47.65711975 19.3106842 C43.75920924 19.31450915 39.86133578 19.32433922 35.96343994 19.33538818 C31.98873394 19.34560282 28.01402197 19.35018193 24.03930664 19.35522461 C16.23525326 19.36596152 8.43123045 19.38303764 0.62719727 19.40405273 Z " fill="#72BA40" transform="translate(1710.372802734375,2845.595947265625)"/>
<path d="M0 0 C31.02 0 62.04 0 94 0 C94 6.27 94 12.54 94 19 C69.91 19 45.82 19 21 19 C21 27.25 21 35.5 21 44 C36.84 44 52.68 44 69 44 C69 49.94 69 55.88 69 62 C53.16 62 37.32 62 21 62 C21 71.24 21 80.48 21 90 C45.42 90 69.84 90 95 90 C95 96.27 95 102.54 95 109 C63.65 109 32.3 109 0 109 C0 73.03 0 37.06 0 0 Z " fill="#2BA043" transform="translate(2239,2846)"/>
<path d="M0 0 C14.39625 -0.061875 28.7925 -0.12375 43.625 -0.1875 C48.16459473 -0.21481201 52.70418945 -0.24212402 57.38134766 -0.27026367 C62.94018555 -0.28381348 62.94018555 -0.28381348 65.54550171 -0.28633118 C67.35859385 -0.29092703 69.17167703 -0.30145575 70.98471069 -0.31672668 C73.73687584 -0.33874176 76.48848242 -0.34171618 79.24072266 -0.34057617 C80.0435499 -0.3513705 80.84637714 -0.36216482 81.67353249 -0.37328625 C87.19089073 -0.34277011 91.42070562 0.64738945 95.64453125 4.5 C98.80172856 8.55472831 100.10959702 11.34420323 100.19287109 16.4362793 C100.20893402 17.33118576 100.22499695 18.22609222 100.24154663 19.14811707 C100.28620262 23.24546411 100.32707606 27.34265168 100.35009766 31.44018555 C100.36663141 33.59622003 100.39388711 35.75220028 100.43212891 37.90795898 C100.48712375 41.02616645 100.50880819 44.14309045 100.5234375 47.26171875 C100.54610687 48.21721115 100.56877625 49.17270355 100.59213257 50.15715027 C100.57201331 56.58582204 99.30945013 61.10336731 95 66 C89.59342861 69.42048394 84.97522213 70.12593548 78.67089844 70.11352539 C77.38987244 70.11344986 76.10884644 70.11337433 74.78900146 70.11329651 C73.39579225 70.10819026 72.00258343 70.10297427 70.609375 70.09765625 C69.18019663 70.09579032 67.75101762 70.09436724 66.32183838 70.09336853 C62.56699852 70.08955715 58.81219757 70.07973867 55.05737305 70.06866455 C50.54858199 70.05661853 46.0397779 70.05204162 41.53097534 70.04621124 C34.68728987 70.03652615 27.8436897 70.01735998 21 70 C21 82.87 21 95.74 21 109 C14.07 109 7.14 109 0 109 C0 73.03 0 37.06 0 0 Z M21 19 C21 29.56 21 40.12 21 51 C28.61752549 51.06883306 36.23397391 51.12858047 43.8515625 51.16479492 C46.44339655 51.17989015 49.03520503 51.20036824 51.62695312 51.22631836 C55.35032459 51.26266827 59.0733586 51.2797192 62.796875 51.29296875 C63.95741394 51.30845261 65.11795288 51.32393646 66.31365967 51.33988953 C67.93488739 51.34022942 67.93488739 51.34022942 69.58886719 51.34057617 C70.53928894 51.34723801 71.48971069 51.35389984 72.46893311 51.36076355 C75.47212461 50.93270611 76.83795943 50.10206778 79 48 C79.60051265 45.2512294 79.60051265 45.2512294 79.49609375 42.125 C79.49673828 40.97515625 79.49738281 39.8253125 79.49804688 38.640625 C79.46807617 36.83851563 79.46807617 36.83851563 79.4375 35 C79.44458984 33.79859375 79.45167969 32.5971875 79.45898438 31.359375 C79.77766228 25.55462102 79.77766228 25.55462102 77.81158447 20.35380554 C75.32854628 18.4982195 73.69332542 18.63826092 70.6105957 18.65942383 C69.50968094 18.65965042 68.40876617 18.65987701 67.27449036 18.66011047 C65.49312935 18.68333626 65.49312935 18.68333626 63.67578125 18.70703125 C61.85097481 18.71339851 61.85097481 18.71339851 59.98930359 18.71989441 C56.09681229 18.73671149 52.20483529 18.77437041 48.3125 18.8125 C45.67643976 18.82754287 43.04037142 18.84123196 40.40429688 18.85351562 C33.9358395 18.88407527 27.46849665 18.94279417 21 19 Z " fill="#85C23F" transform="translate(1554,2846)"/>
<path d="M0 0 C10.08422456 8.75652101 14.56814556 22.78885474 15.71484375 35.6640625 C16.14416536 47.31174445 12.74297458 57.31577371 4.8984375 65.91015625 C-2.68875745 73.08578166 -12.75997746 75.4706474 -22.95703125 75.31640625 C-37.07739132 74.47307693 -47.84175981 70.73986132 -57.5078125 60.1640625 C-67.85282327 47.12895332 -70.18952271 32.36405638 -68.5078125 16.1640625 C-67.69474161 12.39561595 -66.52719865 9.43534225 -64.5078125 6.1640625 C-64.08371094 5.4525 -63.65960937 4.7409375 -63.22265625 4.0078125 C-58.57510705 -2.93114675 -51.66528951 -7.88523648 -43.5078125 -9.8359375 C-27.36801633 -12.6608957 -13.07129961 -9.56933149 0 0 Z " fill="#02F0F6" transform="translate(2356.5078125,2322.8359375)"/>
<path d="M0 0 C25.1482031 -2.25179947 25.1482031 -2.25179947 30.9609375 2.54296875 C33.39589711 5.19932519 35.26431652 8.15860778 37.01611328 11.29882812 C38.45924274 13.79404551 40.27410638 15.92240107 42.125 18.125 C42.75277344 18.91648437 43.38054687 19.70796875 44.02734375 20.5234375 C46.22589037 23.28359305 48.45316815 26.01874097 50.6875 28.75 C51.43257812 29.66136719 52.17765625 30.57273437 52.9453125 31.51171875 C54.62848701 33.55008788 56.33750434 35.5597508 58.0625 37.5625 C60 40 60 40 60 42 C60.66 42 61.32 42 62 42 C62.21527344 41.47535156 62.43054687 40.95070313 62.65234375 40.41015625 C64.52861411 37.05462345 67.03495649 34.30919302 69.5625 31.4375 C70.65723639 30.17793997 71.75097798 28.91751466 72.84375 27.65625 C73.38257813 27.03492187 73.92140625 26.41359375 74.4765625 25.7734375 C76.5478397 23.36225841 78.55921009 20.90532091 80.5625 18.4375 C81.29597656 17.57382813 82.02945312 16.71015625 82.78515625 15.8203125 C84.45871902 13.6892502 85.76998476 11.74499419 87.12109375 9.4296875 C89.57455009 5.54530808 91.83796128 2.15823626 96 0 C104.21083269 -1.58725463 112.72923129 -0.8046977 121 0 C118.09198677 4.56578799 114.8776411 8.62078828 111.3125 12.6875 C110.23599824 13.92883751 109.16048591 15.17103371 108.0859375 16.4140625 C107.29654785 17.32720215 107.29654785 17.32720215 106.49121094 18.25878906 C103.69063826 21.52887491 100.99117022 24.88067465 98.27734375 28.22265625 C95.71795755 31.34396601 93.11397155 34.42442084 90.5 37.5 C85.59512265 43.27508369 80.73841168 49.08685709 76 55 C75.47524582 55.60422791 74.95049164 56.20845581 74.40983582 56.83099365 C72.71289871 59.44170002 72.60668618 60.95045446 72.56762695 64.04394531 C72.54783279 65.04468079 72.52803864 66.04541626 72.50764465 67.07647705 C72.50125473 68.14952087 72.49486481 69.2225647 72.48828125 70.328125 C72.46135445 71.98433868 72.46135445 71.98433868 72.43388367 73.67401123 C72.37971773 77.19930202 72.345864 80.72445691 72.3125 84.25 C72.27933257 86.64064393 72.24484345 89.03126992 72.20898438 91.421875 C72.12150035 97.28127026 72.0614829 103.14004321 72 109 C64.74 109 57.48 109 50 109 C50.03222656 105.50664062 50.06445312 102.01328125 50.09765625 98.4140625 C50.09823941 95.00490189 50.0834175 91.59612867 50.06713867 88.18701172 C50.06406949 85.83020691 50.07684587 83.4733232 50.10620117 81.11669922 C50.97177549 65.86135098 50.97177549 65.86135098 44.703125 52.7265625 C43.17192885 51.43963688 41.6084388 50.18897596 40 49 C38.54418203 47.26520886 37.10189527 45.51872617 35.6875 43.75 C32.19566961 39.43548705 28.62414746 35.20298455 25 31 C20.67228109 25.97649978 16.42302616 20.90027262 12.24609375 15.75 C10.58507072 13.71633006 8.91248724 11.69696603 7.22265625 9.6875 C6.75875488 9.13529785 6.29485352 8.5830957 5.81689453 8.01416016 C4.50337498 6.45328047 3.1873011 4.89455138 1.87109375 3.3359375 C0 1 0 1 0 0 Z " fill="#52AE41" transform="translate(1925,2846)"/>
<path d="M0 0 C6.93 0 13.86 0 21 0 C21 29.7 21 59.4 21 90 C44.1 90 67.2 90 91 90 C91 96.27 91 102.54 91 109 C60.97 109 30.94 109 0 109 C0 73.03 0 37.06 0 0 Z " fill="#61B441" transform="translate(1842,2846)"/>
</svg>
